HIERARCHY
ROOT Hips
{
	OFFSET 0.00000 0.00000 0.00000
	CHANNELS 6 Xposition Yposition Zposition Yrotation Zrotation Xrotation 
	JOINT Lumbar
	{
		OFFSET 0 0 0
		CHANNELS 3 Zrotation Xrotation Yrotation
		JOINT Neck
		{
			OFFSET 0.00 0.2701 0.00
			CHANNELS 3 Zrotation Xrotation Yrotation
			End Site
			{
				OFFSET 0.00 0.1379 0.00
			}
		}
		JOINT RightShoulder
		{
			OFFSET 0.0119 0.2289 0.1181
			CHANNELS 3 Zrotation Xrotation Yrotation
			JOINT RightElbow
			{
				OFFSET 0.00 -0.1475 0.00
				CHANNELS 2 Zrotation Yrotation
				JOINT RightWrist
				{
					OFFSET 0.00 -0.1605 0.00
					CHANNELS 2 Zrotation Xrotation
					End Site
					{
						OFFSET 0.0040 -0.1068 0.0006
					}
				}
			}
		}
		JOINT LeftShoulder
		{
			OFFSET 0.0119 0.2289 -0.1181
			CHANNELS 3 Zrotation Xrotation Yrotation
			JOINT LeftElbow
			{
				OFFSET 0.00 -0.1475 0.00
				CHANNELS 2 Zrotation Yrotation
				JOINT LeftWrist
				{
					OFFSET 0.00 -0.1605 0.00
					CHANNELS 2 Zrotation Xrotation
					End Site
					{
						OFFSET 0.0040 -0.1068 -0.0006
					}
				}
			}
		}
	}
	JOINT RightHip
	{
		OFFSET 0.0316 -0.0424 0.0458
		CHANNELS 3 Zrotation Xrotation Yrotation
		JOINT RightKnee
		{
			OFFSET 0.00 -0.2438 0.00
			CHANNELS 1 Zrotation
			JOINT RightAnkle
			{
				OFFSET 0.00 -0.2449 0.00
				CHANNELS 3 Zrotation Xrotation Yrotation
				End Site
				{
					OFFSET 0.1237 -0.0542 0.0051
				}
			}
		}
	}
	JOINT LeftHip
	{
		OFFSET 0.0316 -0.0424 -0.0458
		CHANNELS 3 Zrotation Xrotation Yrotation
		JOINT LeftKnee
		{
			OFFSET 0.00 -0.2438 0.00
			CHANNELS 1 Zrotation
			JOINT LeftAnkle
			{
				OFFSET 0.00 -0.2449 0.00
				CHANNELS 3 Zrotation Xrotation Yrotation
				End Site
				{
					OFFSET 0.1237 -0.0542 -0.0051
				}
			}
		}
	}
}
MOTION
Frames: 14
Frame Time: 0.02
-0.98738 0.00021 -0.11359 212.73887 -67.14102 -2.22687 -11.54034 3.90681 5.77852 -31.13569 -11.42137 -2.11994 112.15944 1.37493 -85.95252 5.94172 82.73094 0.27211 -0.85659 102.7321 14.75667 -54.2806 20.99438 -80.70699 -7.96047 1.20207 84.29071 0.40146 -16.35195 -30.76265 -6.67235 -2.51769 -3.46575 82.38183 8.96902 8.76824 -30.0061 -7.06539 1.19916 2.83562
-0.98805 0.00025 -0.11351 212.86454 -67.0933 -2.1745 -11.57005 3.94191 5.58169 -30.96682 -11.78134 -2.11994 112.25668 1.63907 -88.05574 5.66811 84.83551 1.14229 -0.24024 102.75006 14.8 -54.63551 21.1363 -80.70931 -8.50774 1.16212 84.1759 0.41253 -16.32209 -30.75822 -6.67399 -2.53946 -3.47734 82.26345 8.87242 8.43548 -29.94682 -7.06262 1.21074 2.8465
-0.98884 0.00032 -0.1134 213.01763 -67.04262 -2.12519 -11.60357 3.99776 5.39359 -30.78308 -12.15955 -2.11994 111.81968 1.81604 -86.76935 5.83546 86.80342 1.68826 0.73044 102.70969 14.83153 -54.82489 21.29779 -80.71996 -9.02109 1.18085 84.03148 0.425 -16.32737 -30.72561 -6.67328 -2.55994 -3.48858 82.12698 8.73098 7.91827 -29.85824 -7.05606 1.23549 2.8658
-0.98959 0.00038 -0.1133 213.15316 -66.99789 -2.07752 -11.6301 4.03991 5.2067 -30.59534 -12.52439 -2.11994 111.63339 2.04152 -87.15908 5.78478 88.68716 2.30682 1.49163 102.69218 14.86837 -55.06262 21.44686 -80.72927 -9.49331 1.1827 83.90308 0.4388 -16.31988 -30.70324 -6.67305 -2.58002 -3.49931 82.00157 8.61601 7.49935 -29.78216 -7.05114 1.25403 2.88083
-0.99029 0.00043 -0.11321 213.311 -66.93384 -2.01674 -11.67866 4.1001 4.99639 -30.45198 -12.91294 -2.11994 111.44258 2.2315 -87.21795 5.77711 91.21673 3.24585 2.43495 102.69084 14.90633 -55.41545 21.61198 -80.72866 -10.20071 1.14372 83.76459 0.44373 -16.29966 -30.6929 -6.67524 -2.60426 -3.51282 81.8648 8.47728 7.02767 -29.71056 -7.04672 1.27263 2.89727
-0.99112 0.00051 -0.11309 213.42844 -66.9091 -1.98406 -11.68282 4.12756 4.83763 -30.21304 -13.25552 -2.11994 111.12278 2.47419 -87.06807 5.79661 92.37387 3.44747 3.09364 102.64165 14.93877 -55.4912 21.7477 -80.75012 -10.41743 1.2021 83.63934 0.4679 -16.31334 -30.65018 -6.67194 -2.61959 -3.52053 81.74655 8.37598 6.61627 -29.6219 -7.04032 1.29482 2.91309
-0.99225 0.00065 -0.11289 213.42978 -66.99609 -2.02853 -11.55699 4.06086 4.81817 -29.71385 -13.46687 -2.11994 110.5827 2.88014 -87.16536 5.784 89.57324 1.58007 2.85582 102.4754 14.95918 -54.81074 21.79914 -80.83584 -9.21417 1.53291 83.56353 0.54217 -16.42062 -30.52687 -6.65305 -2.60974 -3.51152 81.69152 8.39778 6.45112 -29.49767 -7.0291 1.32043 2.92348
-0.99351 0.00082 -0.11265 213.3893 -67.12241 -2.10105 -11.38745 3.9604 4.85074 -29.11916 -13.6308 -2.11994 109.9265 3.34215 -87.13411 5.78793 85.42597 -0.9999 2.32675 102.26306 14.97421 -53.86293 21.81971 -80.94253 -7.53124 1.95663 83.50101 0.63626 -16.55944 -30.37139 -6.62889 -2.59112 -3.49682 81.65439 8.45738 6.34742 -29.35629 -7.01605 1.34971 2.93321
-0.99473 0.00097 -0.11243 213.36615 -67.22899 -2.16068 -11.24217 3.87438 4.86027 -28.56828 -13.81623 -2.11994 109.31565 3.78094 -87.1334 5.78821 82.02208 -3.18184 1.94952 102.07087 14.99139 -53.05684 21.8533 -81.03611 -6.11588 2.32606 83.42863 0.72318 -16.67793 -30.22932 -6.60782 -2.57711 -3.48524 81.60398 8.49324 6.18996 -29.21986 -7.00397 1.3798 2.9445
-0.99588 0.00113 -0.11221 213.34996 -67.34291 -2.2214 -11.07869 3.79234 4.86733 -28.01498 -14.00324 -2.11994 108.71687 4.20853 -87.14472 5.7867 78.06417 -5.68649 1.50178 101.87886 15.00958 -52.15737 21.89238 -81.14504 -4.49116 2.74791 83.37121 0.80263 -16.82205 -30.09163 -6.58377 -2.56045 -3.47141 81.57439 8.55361 6.12843 -29.09468 -6.99109 1.40069 2.95117
-0.9972 0.00129 -0.11198 213.31035 -67.45145 -2.28596 -10.94242 3.69444 4.89198 -27.44443 -14.17459 -2.11994 108.07365 4.6722 -87.13346 5.78754 74.93622 -7.686 1.12752 101.67772 15.02433 -51.39396 21.91178 -81.22695 -3.18768 3.08257 83.28638 0.90202 -16.92096 -29.93724 -6.56468 -2.54721 -3.46089 81.50625 8.57453 5.8926 -28.94205 -6.97958 1.44044 2.96671
-0.99893 0.00148 -0.11168 213.20464 -67.53097 -2.3584 -10.89419 3.55474 4.95087 -26.84822 -14.32128 -2.11994 107.32567 5.23486 -87.14997 5.7872 74.47644 -8.09659 1.02567 101.45105 15.03246 -51.04736 21.88986 -81.22774 -2.90044 3.14768 83.12106 1.05428 -16.87667 -29.74738 -6.56077 -2.54593 -3.46123 81.32485 8.45972 5.0867 -28.72076 -6.9715 1.54009 3.01099
-1.00083 0.00168 -0.11136 213.07906 -67.60462 -2.43281 -10.87441 3.40134 5.02593 -26.23838 -14.45238 -2.11994 106.54176 5.82867 -87.12931 5.7872 74.88895 -7.97527 1.00774 101.21955 15.03691 -50.85219 21.84799 -81.20051 -2.95106 3.12265 82.92823 1.22551 -16.7871 -29.54146 -6.56201 -2.5484 -3.46506 81.10469 8.30716 4.11704 -28.47203 -6.96503 1.657 3.06346
-1.00267 0.00188 -0.11105 212.96981 -67.68389 -2.50378 -10.84014 3.2582 5.09461 -25.63565 -14.58597 -2.11994 105.78348 6.40157 -87.13433 5.7873 74.87346 -8.11009 0.94912 100.99772 15.04235 -50.60456 21.81167 -81.18736 -2.83935 3.14265 82.74902 1.38619 -16.72567 -29.34121 -6.56072 -2.54884 -3.46703 80.90387 8.18391 3.27276 -28.23409 -6.95834 1.76014 3.10942
